<svg width="673" height="119" viewBox="0 0 673 119" fill="none" xmlns="http://www.w3.org/2000/svg">
<path d="M181.071 64.7956C181.071 81.9648 170.95 89.6778 158.465 89.6778C145.98 89.6778 135.859 81.9648 135.859 64.7956C135.859 57.4816 140.261 47.1095 145.262 37.9407C152.112 25.382 158.465 14.4485 158.465 14.4485C158.465 14.4485 164.818 25.382 171.668 37.9407C176.669 47.1095 181.071 57.4816 181.071 64.7956Z" fill="#0038C9"/>
<path d="M45.2113 64.7956C45.2113 81.9648 35.0904 89.6778 22.6056 89.6778C10.1209 89.6778 0 81.9648 0 64.7956C0 57.4816 4.40195 47.1095 9.40275 37.9407C16.2524 25.382 22.6056 14.4485 22.6056 14.4485C22.6056 14.4485 28.9588 25.382 35.8085 37.9407C40.8093 47.1095 45.2113 57.4816 45.2113 64.7956Z" fill="#6E95F9"/>
<path d="M135.784 64.7956C135.784 81.9648 125.664 89.6778 113.179 89.6778C100.694 89.6778 90.5732 81.9648 90.5732 64.7956C90.5732 57.4816 94.9752 47.1095 99.976 37.9407C106.826 25.382 113.179 14.4485 113.179 14.4485C113.179 14.4485 119.532 25.382 126.382 37.9407C131.383 47.1095 135.784 57.4816 135.784 64.7956Z" fill="#164CD6"/>
<path d="M90.7132 64.3471C90.7132 81.5163 80.5923 89.2292 68.1076 89.2292C55.6228 89.2292 45.502 81.5163 45.502 64.3471C45.502 57.0331 49.9039 46.661 54.9047 37.4921C61.7544 24.9334 68.1076 14 68.1076 14C68.1076 14 74.4608 24.9334 81.3105 37.4921C86.3113 46.661 90.7132 57.0331 90.7132 64.3471Z" fill="#3D6BE1"/>
<path d="M640.159 118.112C635.38 118.112 630.644 117.387 625.951 115.936C621.343 114.485 617.375 112.053 614.047 108.64C610.719 105.227 608.97 100.789 608.799 95.328H622.879C623.05 97.5467 623.903 99.4667 625.439 101.088C626.975 102.795 628.98 104.075 631.455 104.928C633.93 105.781 636.703 106.208 639.775 106.208C643.018 106.208 646.004 105.525 648.735 104.16C651.551 102.88 653.727 101.003 655.263 98.528C656.884 96.1387 657.695 93.3653 657.695 90.208V29.408H672.031V89.696C672.031 95.4133 670.666 100.405 667.935 104.672C665.204 108.939 661.407 112.224 656.543 114.528C651.764 116.917 646.303 118.112 640.159 118.112ZM635.551 91.36C630.09 91.36 625.055 89.952 620.447 87.136C615.839 84.32 612.212 80.48 609.567 75.616C606.922 70.752 605.599 65.4613 605.599 59.744C605.599 54.0267 606.922 48.736 609.567 43.872C612.212 39.008 615.839 35.168 620.447 32.352C625.055 29.536 630.09 28.128 635.551 28.128C641.098 28.128 645.876 29.408 649.887 31.968C653.983 34.528 657.098 38.1973 659.231 42.976C661.364 47.7547 662.431 53.344 662.431 59.744C662.431 66.144 661.364 71.7333 659.231 76.512C657.098 81.2907 653.983 84.96 649.887 87.52C645.876 90.08 641.098 91.36 635.551 91.36ZM638.623 78.432C642.207 78.432 645.45 77.6213 648.351 76C651.252 74.3787 653.514 72.16 655.135 69.344C656.842 66.4427 657.695 63.2427 657.695 59.744C657.695 56.2453 656.842 53.088 655.135 50.272C653.514 47.456 651.252 45.2373 648.351 43.616C645.45 41.9947 642.207 41.184 638.623 41.184C635.124 41.184 631.924 42.0373 629.023 43.744C626.122 45.3653 623.818 47.584 622.111 50.4C620.49 53.216 619.679 56.3307 619.679 59.744C619.679 63.1573 620.49 66.3147 622.111 69.216C623.818 72.032 626.122 74.2933 629.023 76C631.924 77.6213 635.124 78.432 638.623 78.432Z" fill="white"/>
<path d="M553.231 92H539.023V29.408H553.231V92ZM583.823 58.08C583.823 53.1307 582.415 49.2053 579.599 46.304C576.868 43.3173 573.242 41.824 568.719 41.824C564.026 41.824 560.271 43.3173 557.455 46.304C554.639 49.2053 553.231 53.1307 553.231 58.08H548.879C548.879 52.1067 549.818 46.8587 551.695 42.336C553.658 37.728 556.388 34.2293 559.887 31.84C563.471 29.3653 567.567 28.128 572.175 28.128C577.466 28.128 582.074 29.28 585.999 31.584C589.924 33.8027 592.911 37.0453 594.959 41.312C597.092 45.5787 598.159 50.5707 598.159 56.288V92H583.823V58.08Z" fill="white"/>
<path d="M527.083 92H512.747V29.408H527.083V92ZM490.603 93.28C485.142 93.28 480.107 91.8293 475.499 88.928C470.891 86.0267 467.264 82.0587 464.619 77.024C461.974 71.9893 460.651 66.528 460.651 60.64C460.651 54.752 461.974 49.3333 464.619 44.384C467.264 39.3493 470.891 35.3813 475.499 32.48C480.107 29.5787 485.142 28.128 490.603 28.128C496.15 28.128 500.928 29.4507 504.939 32.096C509.035 34.7413 512.15 38.5387 514.283 43.488C516.416 48.352 517.483 54.0693 517.483 60.64C517.483 67.296 516.416 73.0987 514.283 78.048C512.15 82.912 509.035 86.6667 504.939 89.312C500.928 91.9573 496.15 93.28 490.603 93.28ZM493.675 79.712C497.259 79.712 500.502 78.9013 503.403 77.28C506.304 75.5733 508.566 73.2693 510.187 70.368C511.894 67.4667 512.747 64.224 512.747 60.64C512.747 57.056 511.894 53.856 510.187 51.04C508.566 48.1387 506.304 45.8773 503.403 44.256C500.502 42.5493 497.259 41.696 493.675 41.696C490.176 41.696 486.976 42.5493 484.075 44.256C481.174 45.9627 478.87 48.2667 477.163 51.168C475.542 54.0693 474.731 57.2267 474.731 60.64C474.731 64.1387 475.542 67.3387 477.163 70.24C478.87 73.1413 481.174 75.4453 484.075 77.152C486.976 78.8587 490.176 79.712 493.675 79.712Z" fill="white"/>
<path d="M438.078 2.39999H452.286V92H438.078V2.39999Z" fill="white"/>
<path d="M382.126 92H367.918V29.408H382.126V92ZM412.718 58.08C412.718 53.1307 411.31 49.2053 408.494 46.304C405.763 43.3173 402.137 41.824 397.614 41.824C392.921 41.824 389.166 43.3173 386.35 46.304C383.534 49.2053 382.126 53.1307 382.126 58.08H377.774C377.774 52.1067 378.713 46.8587 380.59 42.336C382.553 37.728 385.283 34.2293 388.782 31.84C392.366 29.3653 396.462 28.128 401.07 28.128C406.361 28.128 410.969 29.28 414.894 31.584C418.819 33.8027 421.806 37.0453 423.854 41.312C425.987 45.5787 427.054 50.5707 427.054 56.288V92H412.718V58.08Z" fill="white"/>
<path d="M355.841 29.408V92H341.633V29.408H355.841ZM348.801 18.656C346.241 18.656 344.065 17.76 342.273 15.968C340.481 14.176 339.585 12.0427 339.585 9.56799C339.585 7.09332 340.481 4.95999 342.273 3.16799C344.065 1.29066 346.241 0.35199 348.801 0.35199C351.361 0.35199 353.537 1.29066 355.329 3.16799C357.121 4.95999 358.017 7.09332 358.017 9.56799C358.017 12.0427 357.121 14.176 355.329 15.968C353.537 17.76 351.361 18.656 348.801 18.656Z" fill="white"/>
<path d="M329.693 92H315.357V29.408H329.693V92ZM293.213 93.28C287.751 93.28 282.717 91.8293 278.109 88.928C273.501 86.0267 269.874 82.0587 267.229 77.024C264.583 71.9893 263.261 66.528 263.261 60.64C263.261 54.752 264.583 49.3333 267.229 44.384C269.874 39.3493 273.501 35.3813 278.109 32.48C282.717 29.5787 287.751 28.128 293.213 28.128C298.759 28.128 303.538 29.4507 307.549 32.096C311.645 34.7413 314.759 38.5387 316.893 43.488C319.026 48.352 320.093 54.0693 320.093 60.64C320.093 67.296 319.026 73.0987 316.893 78.048C314.759 82.912 311.645 86.6667 307.549 89.312C303.538 91.9573 298.759 93.28 293.213 93.28ZM296.285 79.712C299.869 79.712 303.111 78.9013 306.013 77.28C308.914 75.5733 311.175 73.2693 312.797 70.368C314.503 67.4667 315.357 64.224 315.357 60.64C315.357 57.056 314.503 53.856 312.797 51.04C311.175 48.1387 308.914 45.8773 306.013 44.256C303.111 42.5493 299.869 41.696 296.285 41.696C292.786 41.696 289.586 42.5493 286.685 44.256C283.783 45.9627 281.479 48.2667 279.773 51.168C278.151 54.0693 277.341 57.2267 277.341 60.64C277.341 64.1387 278.151 67.3387 279.773 70.24C281.479 73.1413 283.783 75.4453 286.685 77.152C289.586 78.8587 292.786 79.712 296.285 79.712Z" fill="white"/>
<path d="M226.438 29.408H240.646V38.112C242.438 35.04 244.785 32.608 247.686 30.816C250.673 29.024 253.958 28.128 257.542 28.128C259.334 28.128 261.297 28.384 263.43 28.896V41.952C260.955 41.3547 258.865 41.056 257.158 41.056C254.001 41.056 251.185 41.7387 248.71 43.104C246.235 44.4693 244.273 46.4747 242.822 49.12C241.371 51.7653 240.646 54.9227 240.646 58.592V92H226.438V29.408Z" fill="white"/>
</svg>
