<svg width="627" height="263" viewBox="0 0 627 263" fill="none" xmlns="http://www.w3.org/2000/svg">
<path d="M626.336 175.705C626.336 235.095 591.327 261.774 548.142 261.774C504.956 261.774 469.947 235.095 469.947 175.705C469.947 150.406 485.174 114.528 502.472 82.8123C526.165 39.3709 548.142 1.55139 548.142 1.55139C548.142 1.55139 570.118 39.3709 593.811 82.8123C611.109 114.528 626.336 150.406 626.336 175.705Z" fill="#0038C9"/>
<path d="M156.389 175.705C156.389 235.095 121.38 261.774 78.1944 261.774C35.0088 261.774 0 235.095 0 175.705C0 150.406 15.2267 114.528 32.5248 82.8123C56.2182 39.3709 78.1944 1.55139 78.1944 1.55139C78.1944 1.55139 100.171 39.3709 123.864 82.8123C141.162 114.528 156.389 150.406 156.389 175.705Z" fill="#6E95F9"/>
<path d="M469.688 175.705C469.688 235.095 434.679 261.774 391.494 261.774C348.308 261.774 313.299 235.095 313.299 175.705C313.299 150.406 328.526 114.528 345.824 82.8123C369.518 39.3709 391.494 1.55139 391.494 1.55139C391.494 1.55139 413.47 39.3709 437.163 82.8123C454.462 114.528 469.688 150.406 469.688 175.705Z" fill="#164CD6"/>
<path d="M313.783 174.154C313.783 233.544 278.775 260.223 235.589 260.223C192.403 260.223 157.395 233.544 157.395 174.154C157.395 148.854 172.621 112.977 189.919 81.2609C213.613 37.8195 235.589 0 235.589 0C235.589 0 257.565 37.8195 281.259 81.2609C298.557 112.977 313.783 148.854 313.783 174.154Z" fill="#3D6BE1"/>
</svg>
