<svg width="601" height="151" viewBox="0 0 601 151" fill="none" xmlns="http://www.w3.org/2000/svg">
<path d="M194.356 43.5645H208.564V52.2685C210.356 49.1965 212.703 46.7645 215.604 44.9725C218.591 43.1805 221.876 42.2845 225.46 42.2845C227.252 42.2845 229.215 42.5405 231.348 43.0525V56.1085C228.873 55.5111 226.783 55.2125 225.076 55.2125C221.919 55.2125 219.103 55.8951 216.628 57.2605C214.153 58.6258 212.191 60.6312 210.74 63.2765C209.289 65.9218 208.564 69.0792 208.564 72.7485V106.156H194.356V43.5645Z" fill="white"/>
<path d="M297.611 106.156H283.275V43.5645H297.611V106.156ZM261.131 107.436C255.67 107.436 250.635 105.986 246.027 103.084C241.419 100.183 237.792 96.2152 235.147 91.1805C232.502 86.1458 231.179 80.6845 231.179 74.7965C231.179 68.9085 232.502 63.4898 235.147 58.5405C237.792 53.5058 241.419 49.5378 246.027 46.6365C250.635 43.7352 255.67 42.2845 261.131 42.2845C266.678 42.2845 271.456 43.6072 275.467 46.2525C279.563 48.8978 282.678 52.6952 284.811 57.6445C286.944 62.5085 288.011 68.2258 288.011 74.7965C288.011 81.4525 286.944 87.2551 284.811 92.2045C282.678 97.0685 279.563 100.823 275.467 103.468C271.456 106.114 266.678 107.436 261.131 107.436ZM264.203 93.8685C267.787 93.8685 271.03 93.0578 273.931 91.4365C276.832 89.7298 279.094 87.4258 280.715 84.5245C282.422 81.6231 283.275 78.3805 283.275 74.7965C283.275 71.2125 282.422 68.0125 280.715 65.1965C279.094 62.2952 276.832 60.0338 273.931 58.4125C271.03 56.7058 267.787 55.8525 264.203 55.8525C260.704 55.8525 257.504 56.7058 254.603 58.4125C251.702 60.1192 249.398 62.4232 247.691 65.3245C246.07 68.2258 245.259 71.3832 245.259 74.7965C245.259 78.2952 246.07 81.4952 247.691 84.3965C249.398 87.2978 251.702 89.6018 254.603 91.3085C257.504 93.0152 260.704 93.8685 264.203 93.8685Z" fill="white"/>
<path d="M323.759 43.5645V106.156H309.551V43.5645H323.759ZM316.719 32.8125C314.159 32.8125 311.983 31.9165 310.191 30.1245C308.399 28.3325 307.503 26.1992 307.503 23.7245C307.503 21.2498 308.399 19.1165 310.191 17.3245C311.983 15.4472 314.159 14.5085 316.719 14.5085C319.279 14.5085 321.455 15.4472 323.247 17.3245C325.039 19.1165 325.935 21.2498 325.935 23.7245C325.935 26.1992 325.039 28.3325 323.247 30.1245C321.455 31.9165 319.279 32.8125 316.719 32.8125Z" fill="white"/>
<path d="M350.044 106.156H335.836V43.5645H350.044V106.156ZM380.636 72.2365C380.636 67.2872 379.228 63.3618 376.412 60.4605C373.681 57.4738 370.055 55.9805 365.532 55.9805C360.839 55.9805 357.084 57.4738 354.268 60.4605C351.452 63.3618 350.044 67.2872 350.044 72.2365H345.692C345.692 66.2632 346.631 61.0152 348.508 56.4925C350.471 51.8845 353.201 48.3858 356.7 45.9965C360.284 43.5218 364.38 42.2845 368.988 42.2845C374.279 42.2845 378.887 43.4365 382.812 45.7405C386.737 47.9592 389.724 51.2018 391.772 55.4685C393.905 59.7352 394.972 64.7272 394.972 70.4445V106.156H380.636V72.2365Z" fill="white"/>
<path d="M432.236 107.436C426.775 107.436 421.74 105.986 417.132 103.084C412.524 100.183 408.897 96.2152 406.252 91.1805C403.607 86.1458 402.284 80.6845 402.284 74.7965C402.284 68.9085 403.607 63.4898 406.252 58.5405C408.897 53.5058 412.524 49.5378 417.132 46.6365C421.74 43.7352 426.775 42.2845 432.236 42.2845C437.783 42.2845 442.561 43.6072 446.572 46.2525C450.668 48.8978 453.783 52.6952 455.916 57.6445C458.049 62.5085 459.116 68.2258 459.116 74.7965C459.116 81.4525 458.049 87.2551 455.916 92.2045C453.783 97.0685 450.668 100.823 446.572 103.468C442.561 106.114 437.783 107.436 432.236 107.436ZM435.308 93.8685C438.892 93.8685 442.135 93.0578 445.036 91.4365C447.937 89.7298 450.199 87.4258 451.82 84.5245C453.527 81.6231 454.38 78.3805 454.38 74.7965C454.38 71.2125 453.527 68.0125 451.82 65.1965C450.199 62.2952 447.937 60.0338 445.036 58.4125C442.135 56.7058 438.892 55.8525 435.308 55.8525C431.809 55.8525 428.609 56.7058 425.708 58.4125C422.807 60.1192 420.503 62.4232 418.796 65.3245C417.175 68.2258 416.364 71.3832 416.364 74.7965C416.364 78.2952 417.175 81.4952 418.796 84.3965C420.503 87.2978 422.807 89.6018 425.708 91.3085C428.609 93.0152 431.809 93.8685 435.308 93.8685ZM454.38 16.5565H468.716V106.156H454.38V16.5565Z" fill="white"/>
<path d="M509.456 107.436C503.483 107.436 497.979 105.986 492.944 103.084C487.995 100.183 484.069 96.2578 481.168 91.3085C478.352 86.2738 476.944 80.7272 476.944 74.6685C476.944 68.6952 478.352 63.2338 481.168 58.2845C484.069 53.3352 487.995 49.4525 492.944 46.6365C497.893 43.7352 503.312 42.2845 509.2 42.2845C514.747 42.2845 519.824 43.6498 524.432 46.3805C529.125 49.0258 532.837 52.6952 535.568 57.3885C538.299 61.9965 539.664 67.1592 539.664 72.8765C539.664 74.7538 539.579 76.5458 539.408 78.2525H484.368V67.8845H524.56C524.389 65.3245 523.536 63.0205 522 60.9725C520.549 58.8392 518.629 57.2178 516.24 56.1085C513.936 54.9138 511.419 54.3165 508.688 54.3165C505.104 54.3165 501.904 55.1698 499.088 56.8765C496.272 58.4978 494.096 60.8871 492.56 64.0445C491.024 67.1165 490.256 70.8285 490.256 75.1805C490.256 79.1058 491.067 82.6045 492.688 85.6765C494.309 88.6632 496.528 91.0098 499.344 92.7165C502.245 94.4232 505.573 95.2765 509.328 95.2765C513.339 95.2765 516.752 94.4232 519.568 92.7165C522.384 90.9245 524.133 88.5352 524.816 85.5485H538.896C537.872 92.2045 534.629 97.5378 529.168 101.548C523.707 105.474 517.136 107.436 509.456 107.436Z" fill="white"/>
<path d="M538.666 43.5645H555.946L600.362 106.156H583.21L538.666 43.5645ZM581.802 43.5645H598.826L554.41 106.156H537.386L581.802 43.5645Z" fill="white"/>
<path d="M99.222 125.699C99.222 142.868 89.1011 150.581 76.6164 150.581C64.1316 150.581 54.0107 142.868 54.0107 125.699C54.0107 118.385 58.4127 108.013 63.4135 98.8442C70.2632 86.2856 76.6164 75.3521 76.6164 75.3521C76.6164 75.3521 82.9696 86.2856 89.8192 98.8442C94.82 108.013 99.222 118.385 99.222 125.699Z" fill="#0038C9"/>
<path d="M53.9352 25.005C53.9352 7.83583 64.0561 0.1229 76.5409 0.122899C89.0256 0.122898 99.1465 7.83582 99.1465 25.005C99.1465 32.319 94.7445 42.6912 89.7437 51.86C82.8941 64.4187 76.5409 75.3521 76.5409 75.3521C76.5409 75.3521 70.1876 64.4187 63.338 51.86C58.3372 42.6912 53.9352 32.319 53.9352 25.005Z" fill="#6E95F9"/>
<path d="M44.2982 120.135C29.4292 128.72 17.6892 123.811 11.4468 112.999C5.20446 102.187 6.82361 89.5658 21.6926 80.9812C28.0267 77.3242 39.2102 75.9503 49.651 75.6967C63.952 75.3493 76.5972 75.3847 76.5972 75.3847C76.5972 75.3847 70.3052 86.3534 62.8539 98.5648C57.4139 107.48 50.6323 116.478 44.2982 120.135Z" fill="#164CD6"/>
<path d="M108.859 30.5689C123.727 21.9843 135.468 26.8928 141.71 37.7049C147.952 48.517 146.333 61.1384 131.464 69.723C125.13 73.38 113.947 74.7539 103.506 75.0075C89.2047 75.3548 76.5595 75.3195 76.5595 75.3195C76.5595 75.3195 82.8515 64.3507 90.3028 52.1394C95.7429 43.2242 102.524 34.2259 108.859 30.5689Z" fill="#8BABFF"/>
<path d="M21.6548 69.7882C6.78585 61.2036 5.16671 48.5822 11.4091 37.7701C17.6515 26.9579 29.3915 22.0495 44.2605 30.6341C50.5946 34.2911 57.3761 43.2893 62.8162 52.2046C70.2675 64.4159 76.5595 75.3847 76.5595 75.3847C76.5595 75.3847 63.9142 75.42 49.6133 75.0726C39.1724 74.819 27.9889 73.4452 21.6548 69.7882Z" fill="#3D6BE1"/>
<path d="M131.502 80.916C146.371 89.5006 147.99 102.122 141.748 112.934C135.505 123.746 123.765 128.655 108.896 120.07C102.562 116.413 95.7806 107.415 90.3406 98.4996C82.8893 86.2883 76.5972 75.3195 76.5972 75.3195C76.5972 75.3195 89.2425 75.2842 103.543 75.6315C113.984 75.8851 125.168 77.259 131.502 80.916Z" fill="#AEC4FF"/>
</svg>
