<svg width="673" height="119" viewBox="0 0 673 119" fill="none" xmlns="http://www.w3.org/2000/svg">
<path d="M181.071 64.7956C181.071 81.9648 170.95 89.6777 158.465 89.6777C145.98 89.6777 135.859 81.9648 135.859 64.7956C135.859 57.4816 140.261 47.1094 145.262 37.9406C152.112 25.3819 158.465 14.4485 158.465 14.4485C158.465 14.4485 164.818 25.3819 171.668 37.9406C176.669 47.1094 181.071 57.4816 181.071 64.7956Z" fill="#0038C9"/>
<path d="M45.2113 64.7956C45.2113 81.9648 35.0904 89.6777 22.6056 89.6777C10.1209 89.6777 0 81.9648 0 64.7956C0 57.4816 4.40195 47.1094 9.40275 37.9406C16.2524 25.3819 22.6056 14.4485 22.6056 14.4485C22.6056 14.4485 28.9588 25.3819 35.8085 37.9406C40.8093 47.1094 45.2113 57.4816 45.2113 64.7956Z" fill="#6E95F9"/>
<path d="M135.784 64.7956C135.784 81.9648 125.664 89.6777 113.179 89.6777C100.694 89.6777 90.5732 81.9648 90.5732 64.7956C90.5732 57.4816 94.9752 47.1094 99.976 37.9406C106.826 25.3819 113.179 14.4485 113.179 14.4485C113.179 14.4485 119.532 25.3819 126.382 37.9406C131.383 47.1094 135.784 57.4816 135.784 64.7956Z" fill="#164CD6"/>
<path d="M90.7132 64.3471C90.7132 81.5163 80.5923 89.2292 68.1076 89.2292C55.6228 89.2292 45.502 81.5163 45.502 64.3471C45.502 57.0331 49.9039 46.661 54.9047 37.4921C61.7544 24.9334 68.1076 14 68.1076 14C68.1076 14 74.4608 24.9334 81.3105 37.4921C86.3113 46.661 90.7132 57.0331 90.7132 64.3471Z" fill="#3D6BE1"/>
<path d="M640.159 118.112C635.38 118.112 630.644 117.387 625.951 115.936C621.343 114.485 617.375 112.053 614.047 108.64C610.719 105.227 608.97 100.789 608.799 95.3281H622.879C623.05 97.5467 623.903 99.4667 625.439 101.088C626.975 102.795 628.98 104.075 631.455 104.928C633.93 105.781 636.703 106.208 639.775 106.208C643.018 106.208 646.004 105.525 648.735 104.16C651.551 102.88 653.727 101.003 655.263 98.5281C656.884 96.1387 657.695 93.3654 657.695 90.2081V29.4081H672.031V89.6961C672.031 95.4134 670.666 100.405 667.935 104.672C665.204 108.939 661.407 112.224 656.543 114.528C651.764 116.917 646.303 118.112 640.159 118.112ZM635.551 91.3601C630.09 91.3601 625.055 89.9521 620.447 87.1361C615.839 84.3201 612.212 80.4801 609.567 75.6161C606.922 70.7521 605.599 65.4614 605.599 59.7441C605.599 54.0267 606.922 48.736 609.567 43.872C612.212 39.008 615.839 35.1681 620.447 32.3521C625.055 29.5361 630.09 28.1281 635.551 28.1281C641.098 28.1281 645.876 29.4081 649.887 31.9681C653.983 34.5281 657.098 38.1974 659.231 42.9761C661.364 47.7547 662.431 53.3441 662.431 59.7441C662.431 66.1441 661.364 71.7334 659.231 76.5121C657.098 81.2907 653.983 84.96 649.887 87.5201C645.876 90.08 641.098 91.3601 635.551 91.3601ZM638.623 78.4321C642.207 78.4321 645.45 77.6214 648.351 76.0001C651.252 74.3787 653.514 72.1601 655.135 69.3441C656.842 66.4427 657.695 63.2427 657.695 59.7441C657.695 56.2454 656.842 53.0881 655.135 50.2721C653.514 47.4561 651.252 45.2374 648.351 43.6161C645.45 41.9947 642.207 41.1841 638.623 41.1841C635.124 41.1841 631.924 42.0374 629.023 43.7441C626.122 45.3654 623.818 47.584 622.111 50.4C620.49 53.216 619.679 56.3307 619.679 59.7441C619.679 63.1574 620.49 66.3147 622.111 69.2161C623.818 72.0321 626.122 74.2934 629.023 76.0001C631.924 77.6214 635.124 78.4321 638.623 78.4321Z" fill="#181819"/>
<path d="M553.231 92.0001H539.023V29.4081H553.231V92.0001ZM583.823 58.0801C583.823 53.1307 582.415 49.2054 579.599 46.3041C576.868 43.3174 573.242 41.8241 568.719 41.8241C564.026 41.8241 560.271 43.3174 557.455 46.3041C554.639 49.2054 553.231 53.1307 553.231 58.0801H548.879C548.879 52.1067 549.818 46.8587 551.695 42.3361C553.658 37.7281 556.388 34.2294 559.887 31.84C563.471 29.3654 567.567 28.1281 572.175 28.1281C577.466 28.1281 582.074 29.2801 585.999 31.584C589.924 33.8027 592.911 37.0454 594.959 41.312C597.092 45.5787 598.159 50.5707 598.159 56.288V92.0001H583.823V58.0801Z" fill="#181819"/>
<path d="M527.083 92.0001H512.747V29.4081H527.083V92.0001ZM490.603 93.2801C485.142 93.2801 480.107 91.8294 475.499 88.9281C470.891 86.0267 467.264 82.0587 464.619 77.0241C461.974 71.9894 460.651 66.5281 460.651 60.6401C460.651 54.7521 461.974 49.3334 464.619 44.3841C467.264 39.3494 470.891 35.3814 475.499 32.48C480.107 29.5787 485.142 28.1281 490.603 28.1281C496.15 28.1281 500.928 29.4507 504.939 32.0961C509.035 34.7414 512.15 38.5387 514.283 43.4881C516.416 48.3521 517.483 54.0694 517.483 60.6401C517.483 67.2961 516.416 73.0987 514.283 78.048C512.15 82.9121 509.035 86.6667 504.939 89.312C500.928 91.9574 496.15 93.2801 490.603 93.2801ZM493.675 79.7121C497.259 79.7121 500.502 78.9014 503.403 77.2801C506.304 75.5734 508.566 73.2694 510.187 70.368C511.894 67.4667 512.747 64.2241 512.747 60.6401C512.747 57.0561 511.894 53.856 510.187 51.04C508.566 48.1387 506.304 45.8774 503.403 44.2561C500.502 42.5494 497.259 41.6961 493.675 41.6961C490.176 41.6961 486.976 42.5494 484.075 44.2561C481.174 45.9627 478.87 48.2667 477.163 51.1681C475.542 54.0694 474.731 57.2267 474.731 60.6401C474.731 64.1387 475.542 67.3387 477.163 70.2401C478.87 73.1414 481.174 75.4454 484.075 77.1521C486.976 78.8587 490.176 79.7121 493.675 79.7121Z" fill="#181819"/>
<path d="M438.078 2.40002H452.286V92H438.078V2.40002Z" fill="#181819"/>
<path d="M382.126 92.0001H367.918V29.4081H382.126V92.0001ZM412.718 58.0801C412.718 53.1307 411.31 49.2054 408.494 46.3041C405.763 43.3174 402.137 41.8241 397.614 41.8241C392.921 41.8241 389.166 43.3174 386.35 46.3041C383.534 49.2054 382.126 53.1307 382.126 58.0801H377.774C377.774 52.1067 378.713 46.8587 380.59 42.3361C382.553 37.7281 385.283 34.2294 388.782 31.84C392.366 29.3654 396.462 28.1281 401.07 28.1281C406.361 28.1281 410.969 29.2801 414.894 31.584C418.819 33.8027 421.806 37.0454 423.854 41.312C425.987 45.5787 427.054 50.5707 427.054 56.288V92.0001H412.718V58.0801Z" fill="#181819"/>
<path d="M355.841 29.4081V92.0001H341.633V29.4081H355.841ZM348.801 18.6561C346.241 18.6561 344.065 17.7601 342.273 15.968C340.481 14.1761 339.585 12.0427 339.585 9.56805C339.585 7.09338 340.481 4.96005 342.273 3.16805C344.065 1.29072 346.241 0.352051 348.801 0.352051C351.361 0.352051 353.537 1.29072 355.329 3.16805C357.121 4.96005 358.017 7.09338 358.017 9.56805C358.017 12.0427 357.121 14.1761 355.329 15.968C353.537 17.7601 351.361 18.6561 348.801 18.6561Z" fill="#181819"/>
<path d="M329.693 92.0001H315.357V29.4081H329.693V92.0001ZM293.213 93.2801C287.751 93.2801 282.717 91.8294 278.109 88.9281C273.501 86.0267 269.874 82.0587 267.229 77.0241C264.583 71.9894 263.261 66.5281 263.261 60.6401C263.261 54.7521 264.583 49.3334 267.229 44.3841C269.874 39.3494 273.501 35.3814 278.109 32.48C282.717 29.5787 287.751 28.1281 293.213 28.1281C298.759 28.1281 303.538 29.4507 307.549 32.0961C311.645 34.7414 314.759 38.5387 316.893 43.4881C319.026 48.3521 320.093 54.0694 320.093 60.6401C320.093 67.2961 319.026 73.0987 316.893 78.048C314.759 82.9121 311.645 86.6667 307.549 89.312C303.538 91.9574 298.759 93.2801 293.213 93.2801ZM296.285 79.7121C299.869 79.7121 303.111 78.9014 306.013 77.2801C308.914 75.5734 311.175 73.2694 312.797 70.368C314.503 67.4667 315.357 64.2241 315.357 60.6401C315.357 57.0561 314.503 53.856 312.797 51.04C311.175 48.1387 308.914 45.8774 306.013 44.2561C303.111 42.5494 299.869 41.6961 296.285 41.6961C292.786 41.6961 289.586 42.5494 286.685 44.2561C283.783 45.9627 281.479 48.2667 279.773 51.1681C278.151 54.0694 277.341 57.2267 277.341 60.6401C277.341 64.1387 278.151 67.3387 279.773 70.2401C281.479 73.1414 283.783 75.4454 286.685 77.1521C289.586 78.8587 292.786 79.7121 296.285 79.7121Z" fill="#181819"/>
<path d="M226.438 29.4081H240.646V38.112C242.438 35.0401 244.785 32.6081 247.686 30.8161C250.673 29.0241 253.958 28.1281 257.542 28.1281C259.334 28.1281 261.297 28.3841 263.43 28.896V41.952C260.955 41.3547 258.865 41.0561 257.158 41.0561C254.001 41.0561 251.185 41.7387 248.71 43.104C246.235 44.4694 244.273 46.4747 242.822 49.12C241.371 51.7654 240.646 54.9227 240.646 58.592V92.0001H226.438V29.4081Z" fill="#181819"/>
</svg>
