<svg width="601" height="151" viewBox="0 0 601 151" fill="none" xmlns="http://www.w3.org/2000/svg">
<path d="M99.222 125.699C99.222 142.868 89.1011 150.581 76.6164 150.581C64.1316 150.581 54.0107 142.868 54.0107 125.699C54.0107 118.385 58.4127 108.013 63.4135 98.8442C70.2632 86.2855 76.6164 75.3521 76.6164 75.3521C76.6164 75.3521 82.9696 86.2855 89.8192 98.8442C94.82 108.013 99.222 118.385 99.222 125.699Z" fill="#0038C9"/>
<path d="M53.9352 25.005C53.9352 7.83577 64.0561 0.122839 76.5409 0.122838C89.0256 0.122837 99.1465 7.83576 99.1465 25.005C99.1465 32.319 94.7445 42.6911 89.7437 51.8599C82.8941 64.4186 76.5409 75.3521 76.5409 75.3521C76.5409 75.3521 70.1876 64.4186 63.338 51.8599C58.3372 42.6911 53.9352 32.319 53.9352 25.005Z" fill="#6E95F9"/>
<path d="M44.2982 120.135C29.4292 128.72 17.6892 123.811 11.4468 112.999C5.20446 102.187 6.82361 89.5658 21.6926 80.9812C28.0267 77.3242 39.2102 75.9503 49.651 75.6967C63.952 75.3493 76.5972 75.3847 76.5972 75.3847C76.5972 75.3847 70.3052 86.3534 62.8539 98.5648C57.4139 107.48 50.6323 116.478 44.2982 120.135Z" fill="#164CD6"/>
<path d="M108.859 30.5688C123.727 21.9842 135.468 26.8927 141.71 37.7048C147.952 48.5169 146.333 61.1383 131.464 69.7229C125.13 73.3799 113.947 74.7538 103.506 75.0074C89.2047 75.3548 76.5595 75.3194 76.5595 75.3194C76.5595 75.3194 82.8515 64.3507 90.3028 52.1393C95.7429 43.2241 102.524 34.2259 108.859 30.5688Z" fill="#8BABFF"/>
<path d="M21.6548 69.7882C6.78585 61.2036 5.16671 48.5822 11.4091 37.7701C17.6515 26.9579 29.3915 22.0495 44.2605 30.6341C50.5946 34.2911 57.3761 43.2893 62.8162 52.2046C70.2675 64.4159 76.5595 75.3847 76.5595 75.3847C76.5595 75.3847 63.9142 75.42 49.6133 75.0726C39.1724 74.819 27.9889 73.4452 21.6548 69.7882Z" fill="#3D6BE1"/>
<path d="M131.502 80.9159C146.371 89.5005 147.99 102.122 141.748 112.934C135.505 123.746 123.765 128.655 108.896 120.07C102.562 116.413 95.7806 107.415 90.3406 98.4995C82.8893 86.2882 76.5972 75.3194 76.5972 75.3194C76.5972 75.3194 89.2425 75.2841 103.543 75.6315C113.984 75.8851 125.168 77.2589 131.502 80.9159Z" fill="#AEC4FF"/>
<path d="M538.666 44.7601H555.946L600.362 107.352H583.21L538.666 44.7601ZM581.802 44.7601H598.826L554.41 107.352H537.386L581.802 44.7601Z" fill="#181819"/>
<path d="M509.456 108.632C503.483 108.632 497.979 107.181 492.944 104.28C487.995 101.379 484.069 97.4534 481.168 92.5041C478.352 87.4694 476.944 81.9228 476.944 75.8641C476.944 69.8908 478.352 64.4294 481.168 59.4801C484.069 54.5308 487.995 50.6481 492.944 47.8321C497.893 44.9308 503.312 43.4801 509.2 43.4801C514.747 43.4801 519.824 44.8454 524.432 47.5761C529.125 50.2214 532.837 53.8908 535.568 58.5841C538.299 63.1921 539.664 68.3548 539.664 74.0721C539.664 75.9494 539.579 77.7414 539.408 79.4481H484.368V69.0801H524.56C524.389 66.5201 523.536 64.2161 522 62.1681C520.549 60.0348 518.629 58.4134 516.24 57.3041C513.936 56.1094 511.419 55.5121 508.688 55.5121C505.104 55.5121 501.904 56.3654 499.088 58.0721C496.272 59.6934 494.096 62.0828 492.56 65.2401C491.024 68.3121 490.256 72.0241 490.256 76.3761C490.256 80.3014 491.067 83.8001 492.688 86.8721C494.309 89.8588 496.528 92.2054 499.344 93.9121C502.245 95.6188 505.573 96.4721 509.328 96.4721C513.339 96.4721 516.752 95.6188 519.568 93.9121C522.384 92.1201 524.133 89.7308 524.816 86.7441H538.896C537.872 93.4001 534.629 98.7334 529.168 102.744C523.707 106.669 517.136 108.632 509.456 108.632Z" fill="#181819"/>
<path d="M432.236 108.632C426.775 108.632 421.74 107.181 417.132 104.28C412.524 101.379 408.898 97.4108 406.252 92.3761C403.607 87.3414 402.284 81.8801 402.284 75.9921C402.284 70.1041 403.607 64.6854 406.252 59.7361C408.898 54.7014 412.524 50.7334 417.132 47.8321C421.74 44.9307 426.775 43.4801 432.236 43.4801C437.783 43.4801 442.562 44.8027 446.572 47.4481C450.668 50.0934 453.783 53.8907 455.916 58.8401C458.05 63.7041 459.116 69.4214 459.116 75.9921C459.116 82.6481 458.05 88.4507 455.916 93.4001C453.783 98.2641 450.668 102.019 446.572 104.664C442.562 107.309 437.783 108.632 432.236 108.632ZM435.308 95.0641C438.892 95.0641 442.135 94.2534 445.036 92.6321C447.938 90.9254 450.199 88.6214 451.82 85.7201C453.527 82.8187 454.38 79.5761 454.38 75.9921C454.38 72.4081 453.527 69.2081 451.82 66.3921C450.199 63.4907 447.938 61.2294 445.036 59.6081C442.135 57.9014 438.892 57.0481 435.308 57.0481C431.81 57.0481 428.61 57.9014 425.708 59.6081C422.807 61.3147 420.503 63.6187 418.796 66.5201C417.175 69.4214 416.364 72.5787 416.364 75.9921C416.364 79.4907 417.175 82.6907 418.796 85.5921C420.503 88.4934 422.807 90.7974 425.708 92.5041C428.61 94.2107 431.81 95.0641 435.308 95.0641ZM454.38 17.7521H468.716V107.352H454.38V17.7521Z" fill="#181819"/>
<path d="M350.044 107.352H335.836V44.7601H350.044V107.352ZM380.636 73.4321C380.636 68.4828 379.228 64.5574 376.412 61.6561C373.681 58.6694 370.055 57.1761 365.532 57.1761C360.839 57.1761 357.084 58.6694 354.268 61.6561C351.452 64.5574 350.044 68.4828 350.044 73.4321H345.692C345.692 67.4588 346.631 62.2108 348.508 57.6881C350.471 53.0801 353.201 49.5814 356.7 47.1921C360.284 44.7174 364.38 43.4801 368.988 43.4801C374.279 43.4801 378.887 44.6321 382.812 46.9361C386.737 49.1548 389.724 52.3974 391.772 56.6641C393.905 60.9308 394.972 65.9228 394.972 71.6401V107.352H380.636V73.4321Z" fill="#181819"/>
<path d="M323.759 44.7601V107.352H309.551V44.7601H323.759ZM316.719 34.0081C314.159 34.0081 311.983 33.1121 310.191 31.3201C308.399 29.5281 307.503 27.3948 307.503 24.9201C307.503 22.4454 308.399 20.3121 310.191 18.5201C311.983 16.6428 314.159 15.7041 316.719 15.7041C319.279 15.7041 321.455 16.6428 323.247 18.5201C325.039 20.3121 325.935 22.4454 325.935 24.9201C325.935 27.3948 325.039 29.5281 323.247 31.3201C321.455 33.1121 319.279 34.0081 316.719 34.0081Z" fill="#181819"/>
<path d="M297.611 107.352H283.275V44.7601H297.611V107.352ZM261.131 108.632C255.669 108.632 250.635 107.181 246.027 104.28C241.419 101.379 237.792 97.4108 235.147 92.3761C232.501 87.3414 231.179 81.8801 231.179 75.9921C231.179 70.1041 232.501 64.6854 235.147 59.7361C237.792 54.7014 241.419 50.7334 246.027 47.8321C250.635 44.9308 255.669 43.4801 261.131 43.4801C266.677 43.4801 271.456 44.8028 275.467 47.4481C279.563 50.0934 282.677 53.8908 284.811 58.8401C286.944 63.7041 288.011 69.4214 288.011 75.9921C288.011 82.6481 286.944 88.4508 284.811 93.4001C282.677 98.2641 279.563 102.019 275.467 104.664C271.456 107.309 266.677 108.632 261.131 108.632ZM264.203 95.0641C267.787 95.0641 271.029 94.2534 273.931 92.6321C276.832 90.9254 279.093 88.6214 280.715 85.7201C282.421 82.8188 283.275 79.5761 283.275 75.9921C283.275 72.4081 282.421 69.2081 280.715 66.3921C279.093 63.4908 276.832 61.2294 273.931 59.6081C271.029 57.9014 267.787 57.0481 264.203 57.0481C260.704 57.0481 257.504 57.9014 254.603 59.6081C251.701 61.3148 249.397 63.6188 247.691 66.5201C246.069 69.4214 245.259 72.5788 245.259 75.9921C245.259 79.4908 246.069 82.6908 247.691 85.5921C249.397 88.4934 251.701 90.7974 254.603 92.5041C257.504 94.2108 260.704 95.0641 264.203 95.0641Z" fill="#181819"/>
<path d="M194.356 44.7601H208.564V53.4641C210.356 50.3921 212.703 47.9601 215.604 46.1681C218.591 44.3761 221.876 43.4801 225.46 43.4801C227.252 43.4801 229.215 43.7361 231.348 44.2481V57.3041C228.873 56.7068 226.783 56.4081 225.076 56.4081C221.919 56.4081 219.103 57.0908 216.628 58.4561C214.153 59.8214 212.191 61.8268 210.74 64.4721C209.289 67.1174 208.564 70.2748 208.564 73.9441V107.352H194.356V44.7601Z" fill="#181819"/>
</svg>
